<svg xmlns="http://www.w3.org/2000/svg" viewBox="0 0 25 45"><path fill="#FFF" d="M12 20l1.3 1.3H8.4c-.6 0-1.2.5-1.2 1.2 0 .6.5 1.2 1.2 1.2h4.9L12 25c-.5.5-.5 1.2 0 1.6.5.5 1.2.5 1.6 0l3.3-3.3c.2-.2.4-.5.4-.8 0-.2 0-.3-.1-.5-.1-.1-.1-.3-.2-.4l-3.3-3.3c-.5-.5-1.2-.5-1.6 0-.6.5-.6 1.3-.1 1.7zm-9.6-3.3c-3.2 5.6-1.3 12.8 4.3 16 5.6 3.2 12.8 1.3 16-4.3 3.2-5.6 1.3-12.8-4.3-16-5.7-3.2-12.8-1.4-16 4.3zm14.8-2.3c4.5 2.6 6 8.3 3.5 12.8s-8.3 6-12.8 3.5c-4.4-2.6-6-8.3-3.5-12.8 2.6-4.5 8.3-6.1 12.8-3.5z"/></svg>