<?xml version="1.0" encoding="utf-8"?>
<!-- Generator: Adobe Illustrator 18.0.0, SVG Export Plug-In . SVG Version: 6.00 Build 0)  -->
<!DOCTYPE svg PUBLIC "-//W3C//DTD SVG 1.1//EN" "http://www.w3.org/Graphics/SVG/1.1/DTD/svg11.dtd">
<svg version="1.1" id="Layer_1" xmlns="http://www.w3.org/2000/svg" xmlns:xlink="http://www.w3.org/1999/xlink" x="0px" y="0px"
	 viewBox="0 0 25 35" enable-background="new 0 0 25 35" xml:space="preserve">
<g id="c100_arrow">
	<path fill="#FFFFFF" d="M3.3,17.5c0,1,0.9,1.9,1.9,1.9h10.3l-2.8,2.8c-0.8,0.8-0.8,1.9-0.1,2.6c0.7,0.7,1.9,0.6,2.6-0.1l5.8-5.8
		c0.8-0.8,0.9-1.9,0.1-2.6l-0.1-0.1L21,16.1l-5.8-5.8c-0.8-0.8-1.9-0.8-2.6-0.1c-0.7,0.7-0.7,1.9,0.1,2.6l2.8,2.8H5.1
		C4.1,15.6,3.3,16.5,3.3,17.5z"/>
</g>
<g id="Capa_1">
</g>
</svg>
