<?xml version="1.0" encoding="utf-8"?>
<!-- Generator: Adobe Illustrator 18.0.0, SVG Export Plug-In . SVG Version: 6.00 Build 0)  -->
<!DOCTYPE svg PUBLIC "-//W3C//DTD SVG 1.1//EN" "http://www.w3.org/Graphics/SVG/1.1/DTD/svg11.dtd">
<svg width="35px" version="1.1" id="Capa_1" xmlns="http://www.w3.org/2000/svg" xmlns:xlink="http://www.w3.org/1999/xlink" x="0px" y="0px"
	 viewBox="0 0 25 35" enable-background="new 0 0 25 35" xml:space="preserve">
<g id="_x34_96._Down">
	<g>
		<path fill="#FFFFFF" d="M13,19.5l-1-1h3.8c0.5,0,0.9-0.4,0.9-0.9c0-0.5-0.4-0.9-0.9-0.9H12l1-1c0.4-0.4,0.4-0.9,0-1.2
			c-0.4-0.4-0.9-0.4-1.2,0l-2.6,2.6l0,0c-0.2,0.2-0.3,0.4-0.3,0.6c0,0.2,0,0.2,0.1,0.4C9,18,9,18.2,9.1,18.3l2.6,2.6
			c0.4,0.4,0.9,0.4,1.2,0C13.4,20.4,13.4,19.8,13,19.5z M20.4,22.1c2.5-4.4,1-10-3.3-12.4s-10-1-12.4,3.3s-1,10,3.3,12.4
			C12.4,27.9,17.9,26.5,20.4,22.1z M8.9,23.9c-3.5-2-4.7-6.5-2.7-10s6.5-4.7,10-2.7c3.4,2,4.7,6.5,2.7,10
			C16.9,24.6,12.4,25.9,8.9,23.9z"/>
	</g>
</g>
</svg>
