<?xml version="1.0" encoding="utf-8"?>
<!-- Generator: Adobe Illustrator 18.0.0, SVG Export Plug-In . SVG Version: 6.00 Build 0)  -->
<!DOCTYPE svg PUBLIC "-//W3C//DTD SVG 1.1//EN" "http://www.w3.org/Graphics/SVG/1.1/DTD/svg11.dtd">
<svg version="1.1" id="Capa_1" xmlns="http://www.w3.org/2000/svg" xmlns:xlink="http://www.w3.org/1999/xlink" x="0px" y="0px"
	 viewBox="0 0 25 45" enable-background="new 0 0 25 45" xml:space="preserve">
<g id="_x34_96._Down">
	<g>
		<path fill="#FFFFFF" d="M12,20l1.3,1.3H8.4c-0.6,0-1.2,0.5-1.2,1.2c0,0.6,0.5,1.2,1.2,1.2h4.9L12,25c-0.5,0.5-0.5,1.2,0,1.6
			c0.5,0.5,1.2,0.5,1.6,0l3.3-3.3l0,0c0.2-0.2,0.4-0.5,0.4-0.8c0-0.2,0-0.3-0.1-0.5c-0.1-0.1-0.1-0.3-0.2-0.4l-3.3-3.3
			c-0.5-0.5-1.2-0.5-1.6,0C11.5,18.8,11.5,19.6,12,20z M2.4,16.7c-3.2,5.6-1.3,12.8,4.3,16c5.6,3.2,12.8,1.3,16-4.3
			c3.2-5.6,1.3-12.8-4.3-16C12.7,9.2,5.6,11,2.4,16.7z M17.2,14.4c4.5,2.6,6,8.3,3.5,12.8s-8.3,6-12.8,3.5c-4.4-2.6-6-8.3-3.5-12.8
			C7,13.4,12.7,11.8,17.2,14.4z"/>
	</g>
</g>
</svg>
